<svg width="1622" height="633" viewBox="0 0 1622 633" fill="none" xmlns="http://www.w3.org/2000/svg">
<g clip-path="url(#clip0_2050_30)">
<rect width="1622" height="633" fill="#0B0D0D"/>
<path opacity="0.0322581" d="M-596.448 614.743C-596.448 614.743 -282.825 116.07 69.8404 169.401C422.506 222.732 407.968 482.267 748.448 437.359C1088.93 392.452 1273.93 -94.5924 1533.17 -261.404C1792.41 -428.215 1890.68 286.706 1890.68 286.706" stroke="#0BE925" stroke-opacity="0.25"/>
<path opacity="0.0645161" d="M-618.921 588.423C-618.921 588.423 -295.085 95.5088 57.0278 154.272C409.14 213.035 389.494 471.9 731.329 432.401C1073.17 392.901 1267.98 -90.4176 1530.84 -252.886C1793.71 -415.354 1878.11 299.89 1878.11 299.89" stroke="#0BE925" stroke-opacity="0.25"/>
<path opacity="0.0967742" d="M-641.036 561.97C-641.036 561.97 -307.084 74.9649 44.3683 139.142C395.82 203.318 371.072 461.436 714.159 427.357C1057.25 393.277 1261.8 -86.1692 1528.22 -244.245C1794.65 -402.32 1865.14 313.029 1865.14 313.029" stroke="#0BE925" stroke-opacity="0.25"/>
<path opacity="0.129032" d="M-662.786 535.386C-662.786 535.386 -318.82 54.4393 31.8643 124.01C382.549 193.581 352.705 450.872 696.94 422.223C1041.17 393.575 1255.42 -81.8534 1525.31 -235.488C1795.2 -389.123 1851.76 326.113 1851.76 326.113" stroke="#0BE925" stroke-opacity="0.25"/>
<path opacity="0.16129" d="M-684.17 508.681C-684.17 508.681 -330.296 33.9384 19.5145 108.882C369.325 183.826 334.396 440.212 679.672 417.003C1024.95 393.793 1248.81 -77.4715 1522.09 -226.619C1795.37 -375.766 1837.99 339.139 1837.99 339.139" stroke="#0BE925" stroke-opacity="0.25"/>
<path opacity="0.193548" d="M-705.184 481.861C-705.184 481.861 -341.508 13.4673 7.32155 93.7615C356.151 174.056 316.147 429.459 662.361 411.695C1008.57 393.932 1241.99 -73.0258 1518.57 -217.64C1795.16 -362.254 1823.83 352.103 1823.83 352.103" stroke="#0BE925" stroke-opacity="0.25"/>
<path opacity="0.225806" d="M-726.177 455.128C-726.177 455.128 -352.811 -6.77481 -5.06886 78.8453C342.674 164.465 297.607 418.808 644.652 406.496C991.697 394.184 1234.59 -68.3247 1514.4 -208.362C1794.21 -348.399 1808.91 365.192 1808.91 365.192" stroke="#0BE925" stroke-opacity="0.25"/>
<path opacity="0.258065" d="M-746.444 428.09C-746.444 428.09 -363.502 -27.1806 -16.9523 63.7392C329.597 154.659 279.481 407.863 627.252 401.006C975.023 394.15 1227.32 -63.7686 1510.27 -199.186C1793.21 -334.604 1793.94 378.004 1793.94 378.004" stroke="#0BE925" stroke-opacity="0.25"/>
<path opacity="0.290323" d="M-766.333 400.953C-766.333 400.953 -373.931 -47.5465 -28.6796 48.6453C316.571 144.837 261.421 396.826 609.812 395.426C958.204 394.027 1219.83 -59.1613 1505.83 -189.918C1791.82 -320.674 1778.58 390.733 1778.58 390.733" stroke="#0BE925" stroke-opacity="0.25"/>
<path opacity="0.322581" d="M-785.844 373.725C-785.844 373.725 -384.101 -67.867 -40.2542 33.5675C303.593 135.002 243.426 385.698 592.331 389.757C941.236 393.816 1212.11 -54.5052 1501.07 -180.561C1790.03 -306.617 1762.82 403.373 1762.82 403.373" stroke="#0BE925" stroke-opacity="0.25"/>
<path opacity="0.354839" d="M-804.971 346.41C-804.971 346.41 -394.011 -88.1401 -51.6719 18.5062C290.667 125.152 225.501 374.48 574.814 383.996C924.126 393.511 1204.17 -49.8059 1496 -171.122C1787.83 -292.439 1746.67 415.917 1746.67 415.917" stroke="#0BE925" stroke-opacity="0.25"/>
<path opacity="0.387097" d="M-823.715 319.017C-823.715 319.017 -403.661 -108.359 -62.9352 3.46632C277.791 115.292 207.646 363.175 557.26 378.144C906.874 393.113 1196 -45.0643 1490.62 -161.605C1785.23 -278.145 1730.13 428.362 1730.13 428.362" stroke="#0BE925" stroke-opacity="0.25"/>
<path opacity="0.419355" d="M-842.07 291.547C-842.07 291.547 -413.052 -128.524 -74.0422 -11.5536C264.967 105.417 189.865 351.781 539.674 372.199C889.482 392.617 1187.6 -40.2878 1484.92 -152.017C1782.23 -263.745 1713.2 440.697 1713.2 440.697" stroke="#0BE925" stroke-opacity="0.25"/>
<path opacity="0.451613" d="M-860.038 264.01C-860.038 264.01 -422.186 -148.629 -84.9962 -26.5485C252.193 95.532 172.157 340.3 522.053 366.161C871.95 392.023 1178.97 -35.4776 1478.89 -142.361C1778.81 -249.244 1695.87 452.919 1695.87 452.919" stroke="#0BE925" stroke-opacity="0.25"/>
<path opacity="0.483871" d="M-877.615 236.413C-877.615 236.413 -431.062 -168.668 -95.7948 -41.5151C239.472 85.6378 154.525 328.736 504.403 360.033C854.282 391.329 1170.12 -30.6364 1472.55 -132.641C1774.98 -234.646 1678.16 465.024 1678.16 465.024" stroke="#0BE925" stroke-opacity="0.25"/>
<path opacity="0.516129" d="M-894.8 208.756C-894.8 208.756 -439.682 -188.643 -106.439 -56.456C226.803 75.7306 136.972 317.086 486.725 353.807C836.478 390.529 1161.03 -25.7729 1465.88 -122.869C1770.73 -219.964 1660.06 477 1660.06 477" stroke="#0BE925" stroke-opacity="0.25"/>
<path opacity="0.548387" d="M-911.591 181.055C-911.591 181.055 -448.047 -208.542 -116.931 -71.362C214.186 65.8181 119.497 305.356 469.019 347.492C818.541 389.628 1151.7 -20.8837 1458.89 -113.04C1766.07 -205.197 1641.58 488.849 1641.58 488.849" stroke="#0BE925" stroke-opacity="0.25"/>
<path opacity="0.580645" d="M-927.986 153.308C-927.986 153.308 -456.157 -228.367 -127.268 -86.2357C201.622 55.8961 102.105 293.544 451.289 341.081C800.472 388.619 1142.15 -15.9776 1451.57 -103.167C1760.98 -190.357 1622.72 500.559 1622.72 500.559" stroke="#0BE925" stroke-opacity="0.25"/>
<path opacity="0.612903" d="M-943.986 125.523C-943.986 125.523 -464.015 -248.114 -137.453 -101.074C189.109 45.9659 84.7945 281.651 433.534 334.576C782.273 387.5 1132.36 -11.0579 1443.92 -93.2542C1755.48 -175.451 1603.47 512.125 1603.47 512.125" stroke="#0BE925" stroke-opacity="0.25"/>
<path opacity="0.645161" d="M-959.587 97.7096C-959.587 97.7096 -471.622 -267.777 -147.487 -115.873C176.649 36.0306 67.5684 269.681 415.757 327.977C763.945 386.272 1122.33 -6.12577 1435.94 -83.3036C1749.54 -160.481 1583.85 523.545 1583.85 523.545" stroke="#0BE925" stroke-opacity="0.25"/>
<path opacity="0.677419" d="M-974.789 69.872C-974.789 69.872 -478.977 -287.352 -157.367 -130.631C164.243 26.0903 50.4293 257.636 397.961 321.284C745.493 384.933 1112.07 -1.18589 1427.63 -73.3217C1743.19 -145.457 1563.85 534.811 1563.85 534.811" stroke="#0BE925" stroke-opacity="0.25"/>
<path opacity="0.709677" d="M-989.59 42.0158C-989.59 42.0158 -486.083 -306.836 -167.097 -145.346C151.89 16.1448 33.3786 245.514 380.148 314.497C726.917 383.479 1101.58 3.75711 1418.99 -63.3146C1736.4 -130.386 1543.48 545.916 1543.48 545.916" stroke="#0BE925" stroke-opacity="0.25"/>
<path opacity="0.741935" d="M-1003.99 14.1472C-1003.99 14.1472 -492.941 -326.227 -176.675 -160.016C139.591 6.1947 16.4178 233.318 362.319 307.613C708.22 381.909 1090.85 8.69933 1410.02 -53.288C1729.19 -115.275 1522.73 556.856 1522.73 556.856" stroke="#0BE925" stroke-opacity="0.25"/>
<path opacity="0.774194" d="M-1017.98 -13.724C-1017.98 -13.724 -499.547 -345.517 -186.098 -174.636C127.352 -3.75551 -0.446648 221.053 344.481 300.638C689.408 380.224 1079.89 13.6407 1400.72 -43.2432C1721.55 -100.127 1501.63 567.628 1501.63 567.628" stroke="#0BE925" stroke-opacity="0.25"/>
<path opacity="0.806452" d="M-1031.58 -41.5946C-1031.58 -41.5946 -505.914 -364.705 -195.378 -189.207C115.159 -13.7083 -17.2245 208.717 326.624 293.568C670.473 378.419 1068.68 18.5741 1391.08 -33.1893C1713.47 -84.9526 1480.16 578.224 1480.16 578.224" stroke="#0BE925" stroke-opacity="0.25"/>
<path opacity="0.83871" d="M-1044.77 -69.4607C-1044.77 -69.4607 -512.038 -383.79 -204.508 -203.728C103.022 -23.665 -33.9073 196.308 308.758 286.4C651.424 376.491 1057.24 23.4937 1381.1 -23.1332C1704.96 -69.7601 1458.32 588.635 1458.32 588.635" stroke="#0BE925" stroke-opacity="0.25"/>
<path opacity="0.870968" d="M-1057.56 -97.3103C-1057.56 -97.3103 -517.92 -402.763 -213.491 -218.191C90.9385 -33.619 -50.4943 183.836 290.883 279.14C632.261 374.444 1045.57 28.4018 1370.79 -13.0745C1696.02 -54.5507 1436.12 598.862 1436.12 598.862" stroke="#0BE925" stroke-opacity="0.25"/>
<path opacity="0.903226" d="M-1069.95 -125.143C-1069.95 -125.143 -523.568 -421.625 -222.332 -232.6C78.9043 -43.5752 -66.989 171.295 272.997 271.783C612.983 372.27 1033.65 33.2888 1360.14 -3.02415C1686.64 -39.3371 1413.57 608.894 1413.57 608.894" stroke="#0BE925" stroke-opacity="0.25"/>
<path opacity="0.935484" d="M-1081.58 -153.15C-1081.58 -153.15 -528.626 -440.572 -230.675 -247.152C67.276 -53.7311 -83.0333 158.49 255.457 264.13C593.948 369.77 1021.85 37.9526 1349.51 6.81396C1677.17 -24.3247 1391.01 618.528 1391.01 618.528" stroke="#0BE925" stroke-opacity="0.25"/>
<path opacity="0.967742" d="M-1093.16 -180.923C-1093.16 -180.923 -533.795 -459.198 -239.22 -261.44C55.3555 -63.6831 -99.3241 145.823 237.568 256.584C574.461 367.345 1009.46 42.7924 1338.19 16.8376C1666.92 -9.11728 1367.76 628.162 1367.76 628.162" stroke="#0BE925" stroke-opacity="0.25"/>
<path d="M-1104.33 -208.657C-1104.33 -208.657 -538.732 -477.7 -247.623 -275.666C43.4866 -73.632 -115.516 133.095 219.675 248.944C554.866 364.792 996.84 47.6028 1326.54 26.8397C1656.23 6.07654 1344.16 637.587 1344.16 637.587" stroke="#0BE925" stroke-opacity="0.25"/>
</g>
<defs>
<clipPath id="clip0_2050_30">
<rect width="1622" height="633" fill="white"/>
</clipPath>
</defs>
</svg>
