<svg width="274" height="233" viewBox="0 0 274 233" fill="none" xmlns="http://www.w3.org/2000/svg">
<g clip-path="url(#clip0_2027_23)">
<path d="M131.306 90.7235C147.827 41.5571 96.4119 -6.9774 70.9679 6.68847C45.5239 20.3544 86.9354 63.0093 95.453 53.3094C103.971 43.6094 58.0866 2.38466 38.8067 25.7948C21.0087 47.4056 70.6441 83.7126 77.9584 71.9037C85.2729 60.095 38.3789 31.931 25.9745 58.6518C17.7047 76.466 43.4496 95.3702 62.7564 93.7225M131.306 90.7235L113.935 67.6943M131.306 90.7235L154.561 74.2808" stroke="#0BE925" stroke-width="4"/>
<path d="M71.4677 123.715C167.141 105.081 247.519 128.373 256.957 155.159C266.394 181.944 231.574 207.248 152.172 212.647C72.7696 218.047 24.6031 195.708 28.187 167.969C31.771 140.231 111.494 117.607 196.893 140.08C282.291 162.554 271.902 205.509 188.432 215.567C104.962 225.625 36.5912 203.481 41.1795 167.969C45.7678 132.457 155.402 104.401 261 140.08" stroke="#0BE925" stroke-width="3"/>
</g>
<defs>
<clipPath id="clip0_2027_23">
<rect width="274" height="233" fill="white"/>
</clipPath>
</defs>
</svg>
