<svg width="222" height="88" viewBox="0 0 222 88" fill="none" xmlns="http://www.w3.org/2000/svg">
<g filter="url(#filter0_d_263_520)">
<path d="M24.5598 38.86H22.2798L21.7998 43.66H24.0798L23.8398 46.06H21.5598L19.8198 63.46H16.6998L18.4398 46.06H16.0398L14.2998 63.46H11.1798L12.9198 46.06H10.9998L11.2398 43.66H13.1598L13.6398 38.86H11.7198L11.9598 36.46H13.8798L15.3798 21.46H18.4998L16.9998 36.46H19.3998L20.8998 21.46H24.0198L22.5198 36.46H24.7998L24.5598 38.86ZM18.6798 43.66L19.1598 38.86H16.7598L16.2798 43.66H18.6798ZM43.7317 53.14V58.54C43.7317 61.96 41.9917 63.64 38.5117 63.64C34.9117 63.64 33.1717 61.96 33.1717 58.54V26.38C33.1717 22.96 34.9117 21.28 38.4517 21.28C41.9917 21.28 43.7317 22.96 43.7317 26.38V31.78H40.7317V25.78C40.7317 24.64 39.7117 23.68 38.4517 23.68C37.1917 23.68 36.1717 24.64 36.1717 25.78V59.14C36.1717 60.28 37.1917 61.24 38.4517 61.24C39.7117 61.24 40.7317 60.28 40.7317 59.14V53.14H43.7317ZM60.115 63.46L58.975 49.66H54.895L53.755 63.46H50.635L54.835 21.46H59.035L63.235 63.46H60.115ZM55.135 47.26H58.735L56.935 25.72L55.135 47.26ZM99.2092 21.46V23.86H95.4292V63.46H92.4292V23.86H88.7092V21.46H99.2092ZM117.183 37.36C117.183 38.92 116.463 40.3 115.323 41.26C116.463 42.22 117.183 43.6 117.183 45.16V58.36C117.183 61.78 115.383 63.46 111.903 63.46H106.683V21.46H111.903C115.383 21.46 117.183 23.14 117.183 26.56V37.36ZM109.683 40.06H111.903C113.163 40.06 114.183 39.1 114.183 37.96V25.96C114.183 24.82 113.163 23.86 111.903 23.86H109.683V40.06ZM114.183 44.56C114.183 43.42 113.163 42.46 111.903 42.46H109.683V61.06H111.903C113.163 61.06 114.183 60.1 114.183 58.96V44.56ZM125.574 58.54V26.38C125.574 22.96 127.314 21.28 130.854 21.28C134.394 21.28 136.134 22.96 136.134 26.38V58.54C136.134 61.96 134.394 63.64 130.854 63.64C127.314 63.64 125.574 61.96 125.574 58.54ZM128.574 59.14C128.574 60.28 129.594 61.24 130.854 61.24C132.114 61.24 133.134 60.28 133.134 59.14V25.78C133.134 24.64 132.114 23.68 130.854 23.68C129.594 23.68 128.574 24.64 128.574 25.78V59.14ZM149.743 21.46C153.223 21.46 155.023 23.14 155.023 26.56V41.56C155.023 44.98 153.223 46.66 149.743 46.66H147.523V63.46H144.523V21.46H149.743ZM152.023 42.16V25.96C152.023 24.82 151.003 23.86 149.743 23.86H147.523V44.26H149.743C151.003 44.26 152.023 43.3 152.023 42.16ZM171.828 37.36C171.828 39.1 171.348 40.42 170.448 41.26C171.348 42.1 171.828 43.42 171.828 45.16V57.64C171.828 59.62 172.968 61.24 174.228 61.24V63.64C170.688 63.64 168.828 61.66 168.828 57.64V44.56C168.828 43.42 167.808 42.46 166.548 42.46H165.828V63.46H162.828V21.46H165.828V40.06H166.548C167.808 40.06 168.828 39.1 168.828 37.96V27.28C168.828 23.26 170.688 21.28 174.228 21.28V23.68C172.968 23.68 171.828 25.3 171.828 27.28V37.36ZM192.279 53.14V58.54C192.279 61.96 190.539 63.64 187.059 63.64C183.459 63.64 181.719 61.96 181.719 58.54V26.38C181.719 22.96 183.459 21.28 186.999 21.28C190.539 21.28 192.279 22.96 192.279 26.38V31.78H189.279V25.78C189.279 24.64 188.259 23.68 186.999 23.68C185.739 23.68 184.719 24.64 184.719 25.78V59.14C184.719 60.28 185.739 61.24 186.999 61.24C188.259 61.24 189.279 60.28 189.279 59.14V53.14H192.279Z" fill="white"/>
<path d="M71.3186 16C73.4186 17.38 76.1186 17.38 78.2186 16L78.8186 18.22C76.7186 19.42 72.8186 19.42 70.7186 18.22L71.3186 16ZM81.2186 63.46H78.2186L78.4586 38.26L78.8186 32.26L77.9786 38.26L73.7186 63.46H70.7186V21.46H73.7186L73.4786 46.66L73.1186 52.66L73.9586 46.66L78.2186 21.46H81.2186V63.46Z" fill="#0BE925"/>
</g>
<defs>
<filter id="filter0_d_263_520" x="0" y="0" width="221.278" height="87.6399" filterUnits="userSpaceOnUse" color-interpolation-filters="sRGB">
<feFlood flood-opacity="0" result="BackgroundImageFix"/>
<feColorMatrix in="SourceAlpha" type="matrix" values="0 0 0 0 0 0 0 0 0 0 0 0 0 0 0 0 0 0 127 0" result="hardAlpha"/>
<feOffset dx="9" dy="4"/>
<feGaussianBlur stdDeviation="10"/>
<feComposite in2="hardAlpha" operator="out"/>
<feColorMatrix type="matrix" values="0 0 0 0 0.0448417 0 0 0 0 0.914423 0 0 0 0 0.146293 0 0 0 1 0"/>
<feBlend mode="normal" in2="BackgroundImageFix" result="effect1_dropShadow_263_520"/>
<feBlend mode="normal" in="SourceGraphic" in2="effect1_dropShadow_263_520" result="shape"/>
</filter>
</defs>
</svg>
