<svg width="177" height="63" viewBox="0 0 177 63" fill="none" xmlns="http://www.w3.org/2000/svg">
<g filter="url(#filter0_d_295_47)">
<path d="M16.6322 32.496V35.376C16.6322 37.2 15.7042 38.096 13.8482 38.096C11.9282 38.096 11.0002 37.2 11.0002 35.376V18.224C11.0002 16.4 11.9282 15.504 13.8162 15.504C15.7042 15.504 16.6322 16.4 16.6322 18.224V21.104H15.0322V17.904C15.0322 17.296 14.4882 16.784 13.8162 16.784C13.1442 16.784 12.6002 17.296 12.6002 17.904V35.696C12.6002 36.304 13.1442 36.816 13.8162 36.816C14.4882 36.816 15.0322 36.304 15.0322 35.696V32.496H16.6322ZM25.3699 38L24.7619 30.64H22.5859L21.9779 38H20.3139L22.5539 15.6H24.7939L27.0339 38H25.3699ZM22.7139 29.36H24.6339L23.6739 17.872L22.7139 29.36ZM46.2202 15.6V16.88H44.2042V38H42.6042V16.88H40.6202V15.6H46.2202ZM55.8064 24.08C55.8064 24.912 55.4224 25.648 54.8144 26.16C55.4224 26.672 55.8064 27.408 55.8064 28.24V35.28C55.8064 37.104 54.8464 38 52.9904 38H50.2064V15.6H52.9904C54.8464 15.6 55.8064 16.496 55.8064 18.32V24.08ZM51.8064 25.52H52.9904C53.6624 25.52 54.2064 25.008 54.2064 24.4V18C54.2064 17.392 53.6624 16.88 52.9904 16.88H51.8064V25.52ZM54.2064 27.92C54.2064 27.312 53.6624 26.8 52.9904 26.8H51.8064V36.72H52.9904C53.6624 36.72 54.2064 36.208 54.2064 35.6V27.92ZM60.2814 35.376V18.224C60.2814 16.4 61.2094 15.504 63.0974 15.504C64.9854 15.504 65.9134 16.4 65.9134 18.224V35.376C65.9134 37.2 64.9854 38.096 63.0974 38.096C61.2094 38.096 60.2814 37.2 60.2814 35.376ZM61.8814 35.696C61.8814 36.304 62.4254 36.816 63.0974 36.816C63.7694 36.816 64.3134 36.304 64.3134 35.696V17.904C64.3134 17.296 63.7694 16.784 63.0974 16.784C62.4254 16.784 61.8814 17.296 61.8814 17.904V35.696ZM73.1717 15.6C75.0277 15.6 75.9877 16.496 75.9877 18.32V26.32C75.9877 28.144 75.0277 29.04 73.1717 29.04H71.9877V38H70.3877V15.6H73.1717ZM74.3877 26.64V18C74.3877 17.392 73.8437 16.88 73.1717 16.88H71.9877V27.76H73.1717C73.8437 27.76 74.3877 27.248 74.3877 26.64ZM84.9502 24.08C84.9502 25.008 84.6942 25.712 84.2142 26.16C84.6942 26.608 84.9502 27.312 84.9502 28.24V34.896C84.9502 35.952 85.5582 36.816 86.2302 36.816V38.096C84.3422 38.096 83.3502 37.04 83.3502 34.896V27.92C83.3502 27.312 82.8062 26.8 82.1342 26.8H81.7502V38H80.1502V15.6H81.7502V25.52H82.1342C82.8062 25.52 83.3502 25.008 83.3502 24.4V18.704C83.3502 16.56 84.3422 15.504 86.2302 15.504V16.784C85.5582 16.784 84.9502 17.648 84.9502 18.704V24.08ZM95.8572 32.496V35.376C95.8572 37.2 94.9292 38.096 93.0732 38.096C91.1532 38.096 90.2252 37.2 90.2252 35.376V18.224C90.2252 16.4 91.1532 15.504 93.0412 15.504C94.9292 15.504 95.8572 16.4 95.8572 18.224V21.104H94.2572V17.904C94.2572 17.296 93.7132 16.784 93.0412 16.784C92.3692 16.784 91.8252 17.296 91.8252 17.904V35.696C91.8252 36.304 92.3692 36.816 93.0412 36.816C93.7132 36.816 94.2572 36.304 94.2572 35.696V32.496H95.8572Z" fill="white"/>
<path d="M31.3452 12.688C32.4652 13.424 33.9052 13.424 35.0252 12.688L35.3452 13.872C34.2252 14.512 32.1452 14.512 31.0252 13.872L31.3452 12.688ZM36.6252 38H35.0252L35.1532 24.56L35.3452 21.36L34.8972 24.56L32.6252 38H31.0252V15.6H32.6252L32.4972 29.04L32.3052 32.24L32.7532 29.04L35.0252 15.6H36.6252V38Z" fill="#0BE925"/>
</g>
<path d="M102.072 27.3555C102.287 27.3555 102.486 27.3115 102.668 27.2236C102.85 27.1357 103 27.0153 103.117 26.8623C103.234 26.7061 103.301 26.5286 103.317 26.3301H104.177C104.16 26.6426 104.055 26.9339 103.859 27.2041C103.667 27.471 103.415 27.6875 103.103 27.8535C102.79 28.0163 102.447 28.0977 102.072 28.0977C101.675 28.0977 101.328 28.0277 101.032 27.8877C100.739 27.7477 100.495 27.5557 100.3 27.3115C100.108 27.0674 99.9629 26.7874 99.8652 26.4717C99.7708 26.1527 99.7236 25.8158 99.7236 25.4609V25.2559C99.7236 24.901 99.7708 24.5658 99.8652 24.25C99.9629 23.931 100.108 23.6494 100.3 23.4053C100.495 23.1611 100.739 22.9691 101.032 22.8291C101.328 22.6891 101.675 22.6191 102.072 22.6191C102.486 22.6191 102.847 22.7038 103.156 22.873C103.465 23.0391 103.708 23.2669 103.884 23.5566C104.063 23.8431 104.16 24.1686 104.177 24.5332H103.317C103.301 24.3151 103.239 24.1182 103.132 23.9424C103.028 23.7666 102.884 23.6266 102.702 23.5225C102.523 23.415 102.313 23.3613 102.072 23.3613C101.796 23.3613 101.563 23.4167 101.374 23.5273C101.188 23.6348 101.04 23.7812 100.93 23.9668C100.822 24.1491 100.744 24.3525 100.695 24.5771C100.65 24.7985 100.627 25.0247 100.627 25.2559V25.4609C100.627 25.6921 100.65 25.9199 100.695 26.1445C100.741 26.3691 100.817 26.5726 100.925 26.7549C101.035 26.9372 101.184 27.0837 101.369 27.1943C101.558 27.3018 101.792 27.3555 102.072 27.3555ZM107.346 22.7168V28H106.438V22.7168H107.346ZM109.118 22.7168V23.4492H104.699V22.7168H109.118ZM111.55 27.4531L113.02 22.7168H113.986L111.867 28.8154C111.818 28.9456 111.753 29.0856 111.672 29.2354C111.594 29.3883 111.493 29.5332 111.369 29.6699C111.245 29.8066 111.096 29.9173 110.92 30.002C110.747 30.0898 110.541 30.1338 110.3 30.1338C110.228 30.1338 110.137 30.124 110.026 30.1045C109.916 30.085 109.838 30.0687 109.792 30.0557L109.787 29.3232C109.813 29.3265 109.854 29.3298 109.909 29.333C109.968 29.3395 110.008 29.3428 110.031 29.3428C110.236 29.3428 110.41 29.3151 110.554 29.2598C110.697 29.2077 110.817 29.1182 110.915 28.9912C111.016 28.8675 111.102 28.6966 111.174 28.4785L111.55 27.4531ZM110.471 22.7168L111.843 26.8184L112.077 27.7705L111.428 28.1025L109.484 22.7168H110.471ZM115.48 22.7168H116.384L116.306 24.6943C116.286 25.1956 116.229 25.6286 116.135 25.9932C116.04 26.3577 115.92 26.6686 115.773 26.9258C115.627 27.1797 115.463 27.3929 115.28 27.5654C115.101 27.738 114.916 27.8828 114.724 28H114.274L114.299 27.2627L114.484 27.2578C114.592 27.1309 114.696 27.0007 114.797 26.8672C114.898 26.7305 114.991 26.5693 115.075 26.3838C115.16 26.195 115.23 25.9655 115.285 25.6953C115.344 25.4219 115.381 25.0882 115.397 24.6943L115.48 22.7168ZM115.705 22.7168H118.884V28H117.98V23.5518H115.705V22.7168ZM114.069 27.2578H119.562V29.5576H118.659V28H114.973V29.5576H114.064L114.069 27.2578ZM121.54 26.5693L123.977 22.7168H124.885V28H123.977V24.1475L121.54 28H120.642V22.7168H121.54V26.5693ZM127.404 25.4805H128.381L126.853 28H125.876L127.404 25.4805ZM128.161 22.7168H130.368V28H129.465V23.4492H128.161C127.904 23.4492 127.694 23.4932 127.531 23.5811C127.368 23.6657 127.25 23.7764 127.175 23.9131C127.1 24.0498 127.062 24.1914 127.062 24.3379C127.062 24.4811 127.097 24.6195 127.165 24.7529C127.233 24.8831 127.341 24.9906 127.487 25.0752C127.634 25.1598 127.823 25.2021 128.054 25.2021H129.709V25.9443H128.054C127.751 25.9443 127.482 25.9036 127.248 25.8223C127.014 25.7409 126.815 25.6286 126.652 25.4854C126.49 25.3389 126.366 25.168 126.281 24.9727C126.197 24.7741 126.154 24.5592 126.154 24.3281C126.154 24.097 126.198 23.8838 126.286 23.6885C126.377 23.4932 126.507 23.3223 126.677 23.1758C126.849 23.0293 127.059 22.917 127.307 22.8389C127.557 22.7575 127.842 22.7168 128.161 22.7168ZM100.861 34.7324V41.0312H99.9531V33.7168H100.783L100.861 34.7324ZM104.421 36.3145V36.417C104.421 36.8011 104.375 37.1576 104.284 37.4863C104.193 37.8118 104.06 38.0951 103.884 38.3359C103.711 38.5768 103.498 38.764 103.244 38.8975C102.99 39.0309 102.699 39.0977 102.37 39.0977C102.035 39.0977 101.739 39.0423 101.481 38.9316C101.224 38.821 101.006 38.6598 100.827 38.4482C100.648 38.2367 100.505 37.9827 100.397 37.6865C100.293 37.3903 100.222 37.0566 100.183 36.6855V36.1387C100.222 35.748 100.295 35.3981 100.402 35.0889C100.51 34.7796 100.651 34.516 100.827 34.2979C101.006 34.0765 101.223 33.9089 101.477 33.7949C101.73 33.6777 102.023 33.6191 102.355 33.6191C102.688 33.6191 102.982 33.6842 103.239 33.8145C103.496 33.9414 103.713 34.1237 103.889 34.3613C104.064 34.599 104.196 34.8838 104.284 35.2158C104.375 35.5446 104.421 35.9108 104.421 36.3145ZM103.513 36.417V36.3145C103.513 36.0508 103.485 35.8034 103.43 35.5723C103.374 35.3379 103.288 35.1328 103.171 34.957C103.057 34.778 102.91 34.638 102.731 34.5371C102.552 34.4329 102.339 34.3809 102.092 34.3809C101.864 34.3809 101.665 34.4199 101.496 34.498C101.33 34.5762 101.188 34.682 101.071 34.8154C100.954 34.9456 100.858 35.0954 100.783 35.2646C100.712 35.4307 100.658 35.6032 100.622 35.7822V37.0469C100.687 37.2747 100.778 37.4896 100.896 37.6914C101.013 37.89 101.169 38.0511 101.364 38.1748C101.56 38.2952 101.805 38.3555 102.102 38.3555C102.346 38.3555 102.556 38.305 102.731 38.2041C102.91 38.0999 103.057 37.9583 103.171 37.7793C103.288 37.6003 103.374 37.3952 103.43 37.1641C103.485 36.9297 103.513 36.6807 103.513 36.417ZM108.288 38.0967V35.377C108.288 35.1686 108.246 34.988 108.162 34.835C108.08 34.6787 107.956 34.5583 107.79 34.4736C107.624 34.389 107.419 34.3467 107.175 34.3467C106.947 34.3467 106.747 34.3857 106.575 34.4639C106.405 34.542 106.272 34.6445 106.174 34.7715C106.08 34.8984 106.033 35.0352 106.033 35.1816H105.129C105.129 34.9928 105.178 34.8057 105.276 34.6201C105.373 34.4346 105.513 34.2669 105.696 34.1172C105.881 33.9642 106.103 33.8438 106.36 33.7559C106.62 33.6647 106.91 33.6191 107.229 33.6191C107.613 33.6191 107.952 33.6842 108.245 33.8145C108.541 33.9447 108.772 34.1416 108.938 34.4053C109.107 34.6657 109.192 34.9928 109.192 35.3867V37.8477C109.192 38.0234 109.206 38.2106 109.236 38.4092C109.268 38.6077 109.315 38.7786 109.377 38.9219V39H108.435C108.389 38.8958 108.354 38.7575 108.328 38.585C108.301 38.4092 108.288 38.2464 108.288 38.0967ZM108.445 35.7969L108.454 36.4316H107.541C107.284 36.4316 107.055 36.4528 106.853 36.4951C106.651 36.5342 106.482 36.5944 106.345 36.6758C106.208 36.7572 106.104 36.8597 106.033 36.9834C105.961 37.1038 105.925 37.2454 105.925 37.4082C105.925 37.5742 105.963 37.7256 106.037 37.8623C106.112 37.999 106.225 38.1081 106.374 38.1895C106.527 38.2676 106.715 38.3066 106.936 38.3066C107.213 38.3066 107.457 38.248 107.668 38.1309C107.88 38.0137 108.048 37.8704 108.171 37.7012C108.298 37.5319 108.367 37.3675 108.376 37.208L108.762 37.6426C108.739 37.7793 108.677 37.9307 108.577 38.0967C108.476 38.2627 108.341 38.4222 108.171 38.5752C108.005 38.7249 107.807 38.8503 107.576 38.9512C107.348 39.0488 107.091 39.0977 106.804 39.0977C106.446 39.0977 106.132 39.0277 105.862 38.8877C105.595 38.7477 105.386 38.5605 105.237 38.3262C105.09 38.0885 105.017 37.8232 105.017 37.5303C105.017 37.2471 105.072 36.998 105.183 36.7832C105.294 36.5651 105.453 36.3844 105.662 36.2412C105.87 36.0947 106.121 35.984 106.413 35.9092C106.706 35.8343 107.034 35.7969 107.395 35.7969H108.445ZM112.185 36.4756H111.214V35.9189H112.112C112.363 35.9189 112.561 35.888 112.708 35.8262C112.854 35.7611 112.958 35.6715 113.02 35.5576C113.082 35.4437 113.113 35.3102 113.113 35.1572C113.113 35.0205 113.077 34.8919 113.006 34.7715C112.937 34.6478 112.827 34.5485 112.674 34.4736C112.521 34.3955 112.316 34.3564 112.058 34.3564C111.85 34.3564 111.661 34.3939 111.492 34.4688C111.323 34.5404 111.188 34.6396 111.087 34.7666C110.989 34.8903 110.94 35.0303 110.94 35.1865H110.037C110.037 34.8643 110.128 34.5876 110.31 34.3564C110.496 34.1221 110.742 33.9414 111.048 33.8145C111.357 33.6875 111.694 33.624 112.058 33.624C112.364 33.624 112.638 33.6582 112.879 33.7266C113.123 33.7917 113.33 33.8893 113.499 34.0195C113.668 34.1465 113.797 34.306 113.885 34.498C113.976 34.6868 114.021 34.9066 114.021 35.1572C114.021 35.3363 113.979 35.5055 113.894 35.665C113.81 35.8245 113.688 35.9661 113.528 36.0898C113.369 36.2103 113.175 36.3047 112.947 36.373C112.722 36.4414 112.469 36.4756 112.185 36.4756ZM111.214 36.1338H112.185C112.501 36.1338 112.779 36.1647 113.02 36.2266C113.261 36.2852 113.463 36.373 113.626 36.4902C113.789 36.6074 113.911 36.7523 113.992 36.9248C114.077 37.0941 114.119 37.2894 114.119 37.5107C114.119 37.7581 114.068 37.9811 113.968 38.1797C113.87 38.375 113.73 38.541 113.548 38.6777C113.365 38.8145 113.147 38.9186 112.893 38.9902C112.643 39.0618 112.364 39.0977 112.058 39.0977C111.717 39.0977 111.385 39.0391 111.062 38.9219C110.74 38.8047 110.475 38.624 110.266 38.3799C110.058 38.1325 109.954 37.8184 109.954 37.4375H110.857C110.857 37.597 110.908 37.7484 111.009 37.8916C111.11 38.0348 111.249 38.1504 111.429 38.2383C111.611 38.3262 111.821 38.3701 112.058 38.3701C112.312 38.3701 112.524 38.3311 112.693 38.2529C112.862 38.1748 112.989 38.0706 113.074 37.9404C113.162 37.8102 113.206 37.6686 113.206 37.5156C113.206 37.3171 113.167 37.1576 113.089 37.0371C113.011 36.9167 112.89 36.8288 112.727 36.7734C112.568 36.7148 112.363 36.6855 112.112 36.6855H111.214V36.1338ZM115.794 34.7324V41.0312H114.886V33.7168H115.716L115.794 34.7324ZM119.354 36.3145V36.417C119.354 36.8011 119.308 37.1576 119.217 37.4863C119.126 37.8118 118.992 38.0951 118.817 38.3359C118.644 38.5768 118.431 38.764 118.177 38.8975C117.923 39.0309 117.632 39.0977 117.303 39.0977C116.968 39.0977 116.671 39.0423 116.414 38.9316C116.157 38.821 115.939 38.6598 115.76 38.4482C115.581 38.2367 115.438 37.9827 115.33 37.6865C115.226 37.3903 115.154 37.0566 115.115 36.6855V36.1387C115.154 35.748 115.228 35.3981 115.335 35.0889C115.443 34.7796 115.584 34.516 115.76 34.2979C115.939 34.0765 116.155 33.9089 116.409 33.7949C116.663 33.6777 116.956 33.6191 117.288 33.6191C117.62 33.6191 117.915 33.6842 118.172 33.8145C118.429 33.9414 118.646 34.1237 118.821 34.3613C118.997 34.599 119.129 34.8838 119.217 35.2158C119.308 35.5446 119.354 35.9108 119.354 36.3145ZM118.446 36.417V36.3145C118.446 36.0508 118.418 35.8034 118.363 35.5723C118.307 35.3379 118.221 35.1328 118.104 34.957C117.99 34.778 117.843 34.638 117.664 34.5371C117.485 34.4329 117.272 34.3809 117.025 34.3809C116.797 34.3809 116.598 34.4199 116.429 34.498C116.263 34.5762 116.121 34.682 116.004 34.8154C115.887 34.9456 115.791 35.0954 115.716 35.2646C115.644 35.4307 115.591 35.6032 115.555 35.7822V37.0469C115.62 37.2747 115.711 37.4896 115.828 37.6914C115.946 37.89 116.102 38.0511 116.297 38.1748C116.492 38.2952 116.738 38.3555 117.034 38.3555C117.279 38.3555 117.488 38.305 117.664 38.2041C117.843 38.0999 117.99 37.9583 118.104 37.7793C118.221 37.6003 118.307 37.3952 118.363 37.1641C118.418 36.9297 118.446 36.6807 118.446 36.417ZM123.221 38.0967V35.377C123.221 35.1686 123.179 34.988 123.094 34.835C123.013 34.6787 122.889 34.5583 122.723 34.4736C122.557 34.389 122.352 34.3467 122.108 34.3467C121.88 34.3467 121.68 34.3857 121.507 34.4639C121.338 34.542 121.205 34.6445 121.107 34.7715C121.013 34.8984 120.965 35.0352 120.965 35.1816H120.062C120.062 34.9928 120.111 34.8057 120.209 34.6201C120.306 34.4346 120.446 34.2669 120.629 34.1172C120.814 33.9642 121.035 33.8438 121.293 33.7559C121.553 33.6647 121.843 33.6191 122.162 33.6191C122.546 33.6191 122.884 33.6842 123.177 33.8145C123.474 33.9447 123.705 34.1416 123.871 34.4053C124.04 34.6657 124.125 34.9928 124.125 35.3867V37.8477C124.125 38.0234 124.139 38.2106 124.169 38.4092C124.201 38.6077 124.248 38.7786 124.31 38.9219V39H123.368C123.322 38.8958 123.286 38.7575 123.26 38.585C123.234 38.4092 123.221 38.2464 123.221 38.0967ZM123.378 35.7969L123.387 36.4316H122.474C122.217 36.4316 121.988 36.4528 121.786 36.4951C121.584 36.5342 121.415 36.5944 121.278 36.6758C121.141 36.7572 121.037 36.8597 120.965 36.9834C120.894 37.1038 120.858 37.2454 120.858 37.4082C120.858 37.5742 120.895 37.7256 120.97 37.8623C121.045 37.999 121.157 38.1081 121.307 38.1895C121.46 38.2676 121.647 38.3066 121.869 38.3066C122.145 38.3066 122.39 38.248 122.601 38.1309C122.813 38.0137 122.98 37.8704 123.104 37.7012C123.231 37.5319 123.299 37.3675 123.309 37.208L123.695 37.6426C123.672 37.7793 123.61 37.9307 123.509 38.0967C123.408 38.2627 123.273 38.4222 123.104 38.5752C122.938 38.7249 122.74 38.8503 122.508 38.9512C122.281 39.0488 122.023 39.0977 121.737 39.0977C121.379 39.0977 121.065 39.0277 120.795 38.8877C120.528 38.7477 120.319 38.5605 120.17 38.3262C120.023 38.0885 119.95 37.8232 119.95 37.5303C119.95 37.2471 120.005 36.998 120.116 36.7832C120.226 36.5651 120.386 36.3844 120.594 36.2412C120.803 36.0947 121.053 35.984 121.346 35.9092C121.639 35.8343 121.966 35.7969 122.328 35.7969H123.378ZM128.534 31.417H129.276C129.276 31.736 129.228 31.9899 129.13 32.1787C129.032 32.3643 128.899 32.5075 128.729 32.6084C128.563 32.7093 128.375 32.7858 128.163 32.8379C127.955 32.89 127.738 32.9404 127.514 32.9893C127.234 33.0479 126.973 33.1406 126.732 33.2676C126.495 33.3913 126.29 33.5671 126.117 33.7949C125.948 34.0228 125.823 34.319 125.741 34.6836C125.663 35.0482 125.642 35.499 125.678 36.0361V36.4854H124.936V36.0361C124.936 35.4339 124.993 34.9082 125.106 34.459C125.224 34.0098 125.388 33.6305 125.6 33.3213C125.811 33.012 126.062 32.7663 126.352 32.584C126.645 32.4017 126.967 32.2764 127.318 32.208C127.572 32.1592 127.79 32.1071 127.973 32.0518C128.155 31.9932 128.293 31.915 128.388 31.8174C128.485 31.7197 128.534 31.5863 128.534 31.417ZM127.465 34.0195C127.81 34.0195 128.118 34.0798 128.388 34.2002C128.658 34.3206 128.887 34.4883 129.076 34.7031C129.265 34.918 129.408 35.1719 129.506 35.4648C129.607 35.7546 129.657 36.0703 129.657 36.4121V36.5195C129.657 36.8874 129.604 37.2292 129.496 37.5449C129.392 37.8574 129.237 38.1309 129.032 38.3652C128.83 38.5964 128.583 38.777 128.29 38.9072C128 39.0374 127.67 39.1025 127.299 39.1025C126.928 39.1025 126.596 39.0374 126.303 38.9072C126.013 38.777 125.766 38.5964 125.561 38.3652C125.355 38.1309 125.199 37.8574 125.092 37.5449C124.988 37.2292 124.936 36.8874 124.936 36.5195V36.4121C124.936 36.3307 124.95 36.251 124.979 36.1729C125.009 36.0947 125.045 36.015 125.087 35.9336C125.132 35.8522 125.173 35.766 125.209 35.6748C125.329 35.3818 125.494 35.11 125.702 34.8594C125.914 34.6087 126.166 34.4069 126.459 34.2539C126.755 34.0977 127.09 34.0195 127.465 34.0195ZM127.289 34.7568C126.957 34.7568 126.684 34.8333 126.469 34.9863C126.257 35.1393 126.099 35.3428 125.995 35.5967C125.891 35.8473 125.839 36.1191 125.839 36.4121V36.5195C125.839 36.7669 125.868 37.0013 125.927 37.2227C125.985 37.444 126.073 37.641 126.19 37.8135C126.311 37.9827 126.462 38.1162 126.645 38.2139C126.83 38.3115 127.048 38.3604 127.299 38.3604C127.549 38.3604 127.766 38.3115 127.948 38.2139C128.131 38.1162 128.28 37.9827 128.397 37.8135C128.515 37.641 128.603 37.444 128.661 37.2227C128.72 37.0013 128.749 36.7669 128.749 36.5195V36.4121C128.749 36.1908 128.72 35.9808 128.661 35.7822C128.603 35.5837 128.513 35.4079 128.393 35.2549C128.275 35.1019 128.124 34.9814 127.938 34.8936C127.756 34.8024 127.54 34.7568 127.289 34.7568ZM130.043 36.417V36.3047C130.043 35.9238 130.099 35.5706 130.209 35.2451C130.32 34.9163 130.48 34.6315 130.688 34.3906C130.896 34.1465 131.149 33.9577 131.445 33.8242C131.741 33.6875 132.073 33.6191 132.441 33.6191C132.812 33.6191 133.146 33.6875 133.442 33.8242C133.741 33.9577 133.995 34.1465 134.204 34.3906C134.415 34.6315 134.576 34.9163 134.687 35.2451C134.798 35.5706 134.853 35.9238 134.853 36.3047V36.417C134.853 36.7979 134.798 37.151 134.687 37.4766C134.576 37.8021 134.415 38.0869 134.204 38.3311C133.995 38.5719 133.743 38.7607 133.447 38.8975C133.154 39.0309 132.822 39.0977 132.451 39.0977C132.079 39.0977 131.746 39.0309 131.45 38.8975C131.153 38.7607 130.899 38.5719 130.688 38.3311C130.48 38.0869 130.32 37.8021 130.209 37.4766C130.099 37.151 130.043 36.7979 130.043 36.417ZM130.947 36.3047V36.417C130.947 36.6807 130.978 36.9297 131.039 37.1641C131.101 37.3952 131.194 37.6003 131.318 37.7793C131.445 37.9583 131.603 38.0999 131.791 38.2041C131.98 38.305 132.2 38.3555 132.451 38.3555C132.698 38.3555 132.914 38.305 133.1 38.2041C133.289 38.0999 133.445 37.9583 133.569 37.7793C133.692 37.6003 133.785 37.3952 133.847 37.1641C133.912 36.9297 133.945 36.6807 133.945 36.417V36.3047C133.945 36.0443 133.912 35.7985 133.847 35.5674C133.785 35.333 133.691 35.1263 133.564 34.9473C133.44 34.765 133.284 34.6217 133.095 34.5176C132.91 34.4134 132.691 34.3613 132.441 34.3613C132.193 34.3613 131.975 34.4134 131.787 34.5176C131.601 34.6217 131.445 34.765 131.318 34.9473C131.194 35.1263 131.101 35.333 131.039 35.5674C130.978 35.7985 130.947 36.0443 130.947 36.3047ZM137.632 33.7168V39H136.723V33.7168H137.632ZM139.404 33.7168V34.4492H134.985V33.7168H139.404ZM140.874 33.7168V39H139.971V33.7168H140.874ZM144.341 33.7168L141.836 36.7441H140.571L140.435 35.9531H141.47L143.242 33.7168H144.341ZM143.369 39L141.426 36.6074L142.007 35.9531L144.517 39H143.369ZM145.879 37.5693L148.316 33.7168H149.224V39H148.316V35.1475L145.879 39H144.981V33.7168H145.879V37.5693Z" fill="#D5D5D5"/>
<defs>
<filter id="filter0_d_295_47" x="0" y="-3.312" width="124.857" height="65.408" filterUnits="userSpaceOnUse" color-interpolation-filters="sRGB">
<feFlood flood-opacity="0" result="BackgroundImageFix"/>
<feColorMatrix in="SourceAlpha" type="matrix" values="0 0 0 0 0 0 0 0 0 0 0 0 0 0 0 0 0 0 127 0" result="hardAlpha"/>
<feOffset dx="9" dy="4"/>
<feGaussianBlur stdDeviation="10"/>
<feComposite in2="hardAlpha" operator="out"/>
<feColorMatrix type="matrix" values="0 0 0 0 0.0448417 0 0 0 0 0.914423 0 0 0 0 0.146293 0 0 0 1 0"/>
<feBlend mode="normal" in2="BackgroundImageFix" result="effect1_dropShadow_295_47"/>
<feBlend mode="normal" in="SourceGraphic" in2="effect1_dropShadow_295_47" result="shape"/>
</filter>
</defs>
</svg>
