<svg width="304" height="215" viewBox="0 0 304 215" fill="none" xmlns="http://www.w3.org/2000/svg">
<path d="M37.5074 125.787C116.756 108.629 183.336 130.076 191.153 154.74C198.97 179.404 170.128 202.703 104.357 207.675C38.5857 212.647 -1.31181 192.077 1.65686 166.536C4.62555 140.995 70.6626 120.162 141.4 140.856C212.138 161.55 203.532 201.102 134.392 210.363C65.2512 219.625 8.61824 199.235 12.4189 166.536C16.2195 133.837 107.032 108.003 194.502 140.856" stroke="#0BE925" stroke-width="3"/>
<path d="M174.738 99.045C165.495 48.0073 223.383 7.41162 246.585 24.6107C269.787 41.8098 222.647 78.0332 215.62 67.2042C208.594 56.3753 259.953 22.2134 275.648 48.1638C290.137 72.1196 235.776 100.873 230.245 88.1313C224.713 75.3897 275.185 54.2974 283.598 82.5302C289.207 101.352 261 116.338 242.134 111.918M174.738 99.045L195.254 78.7676M174.738 99.045L154.102 79.4146" stroke="#0BE925" stroke-width="4"/>
</svg>
