<svg width="230" height="225" viewBox="0 0 230 225" fill="none" xmlns="http://www.w3.org/2000/svg">
<g clip-path="url(#clip0_2013_19)">
<path d="M81.9292 117.258L184.893 72.5022M100.047 99.0164L186.248 53.8513M189.248 86.4399C185.68 87.555 136.977 106.267 113.071 115.484M131.365 120.244L207.382 99.6315M118.241 78.2465L185.31 28.9999" stroke="#0BE925" stroke-width="3"/>
<g filter="url(#filter0_d_2013_19)">
<path d="M41.219 180.4H38.939L38.459 185.2H40.739L40.499 187.6H38.219L36.479 205H33.359L35.099 187.6H32.699L30.959 205H27.839L29.579 187.6H27.659L27.899 185.2H29.819L30.299 180.4H28.379L28.619 178H30.539L32.039 163H35.159L33.659 178H36.059L37.559 163H40.679L39.179 178H41.459L41.219 180.4ZM35.339 185.2L35.819 180.4H33.419L32.939 185.2H35.339ZM60.3909 194.68V200.08C60.3909 203.5 58.6509 205.18 55.1709 205.18C51.5709 205.18 49.8309 203.5 49.8309 200.08V167.92C49.8309 164.5 51.5709 162.82 55.1109 162.82C58.6509 162.82 60.3909 164.5 60.3909 167.92V173.32H57.3909V167.32C57.3909 166.18 56.3709 165.22 55.1109 165.22C53.8509 165.22 52.8309 166.18 52.8309 167.32V200.68C52.8309 201.82 53.8509 202.78 55.1109 202.78C56.3709 202.78 57.3909 201.82 57.3909 200.68V194.68H60.3909ZM76.7741 205L75.6341 191.2H71.5541L70.4141 205H67.2941L71.4941 163H75.6941L79.8941 205H76.7741ZM71.7941 188.8H75.3941L73.5941 167.26L71.7941 188.8ZM115.868 163V165.4H112.088V205H109.088V165.4H105.368V163H115.868ZM133.843 178.9C133.843 180.46 133.123 181.84 131.983 182.8C133.123 183.76 133.843 185.14 133.843 186.7V199.9C133.843 203.32 132.043 205 128.563 205H123.343V163H128.563C132.043 163 133.843 164.68 133.843 168.1V178.9ZM126.343 181.6H128.563C129.823 181.6 130.843 180.64 130.843 179.5V167.5C130.843 166.36 129.823 165.4 128.563 165.4H126.343V181.6ZM130.843 186.1C130.843 184.96 129.823 184 128.563 184H126.343V202.6H128.563C129.823 202.6 130.843 201.64 130.843 200.5V186.1ZM142.233 200.08V167.92C142.233 164.5 143.973 162.82 147.513 162.82C151.053 162.82 152.793 164.5 152.793 167.92V200.08C152.793 203.5 151.053 205.18 147.513 205.18C143.973 205.18 142.233 203.5 142.233 200.08ZM145.233 200.68C145.233 201.82 146.253 202.78 147.513 202.78C148.773 202.78 149.793 201.82 149.793 200.68V167.32C149.793 166.18 148.773 165.22 147.513 165.22C146.253 165.22 145.233 166.18 145.233 167.32V200.68ZM166.402 163C169.882 163 171.682 164.68 171.682 168.1V183.1C171.682 186.52 169.882 188.2 166.402 188.2H164.182V205H161.182V163H166.402ZM168.682 183.7V167.5C168.682 166.36 167.662 165.4 166.402 165.4H164.182V185.8H166.402C167.662 185.8 168.682 184.84 168.682 183.7ZM188.487 178.9C188.487 180.64 188.007 181.96 187.107 182.8C188.007 183.64 188.487 184.96 188.487 186.7V199.18C188.487 201.16 189.627 202.78 190.887 202.78V205.18C187.347 205.18 185.487 203.2 185.487 199.18V186.1C185.487 184.96 184.467 184 183.207 184H182.487V205H179.487V163H182.487V181.6H183.207C184.467 181.6 185.487 180.64 185.487 179.5V168.82C185.487 164.8 187.347 162.82 190.887 162.82V165.22C189.627 165.22 188.487 166.84 188.487 168.82V178.9ZM208.938 194.68V200.08C208.938 203.5 207.198 205.18 203.718 205.18C200.118 205.18 198.378 203.5 198.378 200.08V167.92C198.378 164.5 200.118 162.82 203.658 162.82C207.198 162.82 208.938 164.5 208.938 167.92V173.32H205.938V167.32C205.938 166.18 204.918 165.22 203.658 165.22C202.398 165.22 201.378 166.18 201.378 167.32V200.68C201.378 201.82 202.398 202.78 203.658 202.78C204.918 202.78 205.938 201.82 205.938 200.68V194.68H208.938Z" fill="white"/>
<path d="M87.9777 157.54C90.0777 158.92 92.7777 158.92 94.8777 157.54L95.4777 159.76C93.3777 160.96 89.4777 160.96 87.3777 159.76L87.9777 157.54ZM97.8777 205H94.8777L95.1177 179.8L95.4777 173.8L94.6377 179.8L90.3777 205H87.3777V163H90.3777L90.1377 188.2L89.7777 194.2L90.6177 188.2L94.8777 163H97.8777V205Z" fill="#0BE925"/>
</g>
</g>
<defs>
<filter id="filter0_d_2013_19" x="16.6592" y="141.54" width="221.278" height="87.6399" filterUnits="userSpaceOnUse" color-interpolation-filters="sRGB">
<feFlood flood-opacity="0" result="BackgroundImageFix"/>
<feColorMatrix in="SourceAlpha" type="matrix" values="0 0 0 0 0 0 0 0 0 0 0 0 0 0 0 0 0 0 127 0" result="hardAlpha"/>
<feOffset dx="9" dy="4"/>
<feGaussianBlur stdDeviation="10"/>
<feComposite in2="hardAlpha" operator="out"/>
<feColorMatrix type="matrix" values="0 0 0 0 0.0448417 0 0 0 0 0.914423 0 0 0 0 0.146293 0 0 0 1 0"/>
<feBlend mode="normal" in2="BackgroundImageFix" result="effect1_dropShadow_2013_19"/>
<feBlend mode="normal" in="SourceGraphic" in2="effect1_dropShadow_2013_19" result="shape"/>
</filter>
<clipPath id="clip0_2013_19">
<rect width="230" height="225" fill="white"/>
</clipPath>
</defs>
</svg>
